<svg width="134" height="33" viewBox="0 0 134 33" fill="none" xmlns="http://www.w3.org/2000/svg">
<path fill-rule="evenodd" clip-rule="evenodd" d="M14.9185 23.5207C14.8708 23.6989 15.0051 23.874 15.1896 23.874H16.8056C16.9901 23.874 17.1244 23.6989 17.0767 23.5207L16.2686 20.5052C16.1943 20.2279 15.8009 20.2279 15.7265 20.5052L14.9185 23.5207Z" fill="white"/>
<path fill-rule="evenodd" clip-rule="evenodd" d="M13.3094 25.4509C13.1856 25.9127 12.7671 26.2339 12.289 26.2339H10.1016C9.40699 26.2339 8.90141 25.575 9.08119 24.904L13.5685 8.1573C13.7038 7.65216 14.1616 7.3009 14.6845 7.3009H17.2878C17.8107 7.3009 18.2685 7.65216 18.4039 8.1573L22.8911 24.904C23.0709 25.575 22.5653 26.2339 21.8707 26.2339H19.6833C19.2052 26.2339 18.7867 25.9127 18.6629 25.4509L16.4804 17.3057C16.3449 16.8 15.6274 16.8 15.4919 17.3057L13.3094 25.4509Z" fill="white"/>
<path fill-rule="evenodd" clip-rule="evenodd" d="M24.312 22.2951C24.1722 22.8171 23.4315 22.8171 23.2916 22.2951L21.6625 16.2153C21.631 16.0978 21.631 15.974 21.6625 15.8564L23.7387 8.10824C23.8663 7.63196 24.2979 7.30078 24.791 7.30078H26.91C27.6263 7.30078 28.1477 7.98025 27.9623 8.67218L24.312 22.2951ZM10.3347 16.2052C10.3662 16.0876 10.3662 15.9638 10.3347 15.8463L8.26134 8.10825C8.13373 7.63196 7.70212 7.30078 7.20904 7.30078H5.09003C4.3737 7.30078 3.85232 7.98025 4.03772 8.67218L7.68525 22.285C7.82512 22.8069 8.5658 22.8069 8.70567 22.285L10.3347 16.2052Z" fill="white"/>
<path fill-rule="evenodd" clip-rule="evenodd" d="M71.0249 25.1227C70.1845 25.1227 69.4141 24.9476 68.7137 24.5974C68.3185 24.3954 67.9751 24.1553 67.6836 23.8772C67.4994 23.7015 67.1261 23.8208 67.1261 24.0725V24.4482C67.1261 24.6189 66.9846 24.7573 66.8101 24.7573H65.2943C65.1198 24.7573 64.9783 24.6189 64.9783 24.4482V8.71536C64.9783 8.54464 65.1198 8.40625 65.2943 8.40625H66.803C66.9775 8.40625 67.119 8.54464 67.119 8.71536V14.2527C67.119 14.5044 67.4932 14.6244 67.678 14.4492C67.9718 14.1706 68.3179 13.9301 68.7137 13.7277C69.4141 13.3776 70.1845 13.2025 71.0249 13.2025C72.5346 13.2025 73.8109 13.781 74.8537 14.938C75.9276 16.1102 76.4646 17.5184 76.4646 19.1626C76.4646 20.822 75.9276 22.2302 74.8537 23.3872C73.8109 24.5442 72.5346 25.1227 71.0249 25.1227ZM70.6747 23.2045C71.702 23.2045 72.5658 22.8239 73.2661 22.0627C73.9665 21.3167 74.3167 20.35 74.3167 19.1626C74.3167 17.9904 73.9665 17.0237 73.2661 16.2625C72.5658 15.5013 71.702 15.1207 70.6747 15.1207C69.6319 15.1207 68.7604 15.5013 68.06 16.2625C67.3752 17.0237 67.0328 17.9904 67.0328 19.1626C67.0328 20.35 67.3752 21.3244 68.06 22.0855C68.7604 22.8315 69.6319 23.2045 70.6747 23.2045ZM57.5979 25.1227C55.917 25.1227 54.5318 24.5594 53.4423 23.4328C52.3528 22.3063 51.808 20.8829 51.808 19.1626C51.808 17.4575 52.3372 16.0417 53.3956 14.9152C54.4539 13.7734 55.808 13.2025 57.4578 13.2025C59.1543 13.2025 60.5006 13.743 61.4967 14.8238C62.5701 15.9546 63.0833 17.6553 63.0161 19.2021C63.0075 19.4004 62.8363 19.5508 62.6333 19.5508H54.3884C54.1771 19.5508 54.0057 19.7218 54.0276 19.9274C54.126 20.8509 54.4912 21.6084 55.1232 22.1997C55.8391 22.8696 56.6952 23.2045 57.6912 23.2045C58.9621 23.2045 59.9783 22.6278 60.7399 21.4745C60.8418 21.3203 61.0444 21.2576 61.2131 21.3381L62.4964 21.9504C62.6773 22.0367 62.7498 22.2533 62.645 22.4213C62.1489 23.2169 61.4938 23.851 60.6795 24.3234C59.7768 24.8562 58.7496 25.1227 57.5979 25.1227ZM54.2903 17.3743C54.2143 17.5971 54.3937 17.8153 54.6338 17.8153H60.3204C60.5392 17.8153 60.7141 17.632 60.6697 17.4224C60.5422 16.8205 60.2342 16.3121 59.7457 15.8971C59.1698 15.3795 58.3916 15.1207 57.4111 15.1207C56.6018 15.1207 55.9014 15.3643 55.31 15.8514C54.8411 16.2481 54.5012 16.7557 54.2903 17.3743ZM51.1496 13.9971C51.2195 13.785 51.0578 13.5679 50.83 13.5679H49.3477C49.1988 13.5679 49.0677 13.6638 49.0256 13.8035L46.8392 21.0628C46.7516 21.354 46.3322 21.36 46.2357 21.0715L43.8027 13.7942C43.7575 13.6592 43.6287 13.5679 43.4835 13.5679H41.7519C41.607 13.5679 41.4784 13.6588 41.4331 13.7935L38.978 21.0763C38.8809 21.3642 38.4623 21.3577 38.3747 21.0669L36.1871 13.8035C36.1451 13.6638 36.0139 13.5679 35.865 13.5679H34.336C34.1082 13.5679 33.9465 13.785 34.0164 13.9971L37.4886 24.5297C37.5333 24.6653 37.6624 24.7573 37.8082 24.7573H39.4901C39.6359 24.7573 39.7651 24.6652 39.8098 24.5295L42.2601 17.0817C42.354 16.7962 42.7669 16.7957 42.8615 17.081L45.3326 24.5302C45.3775 24.6656 45.5064 24.7573 45.6519 24.7573H47.3579C47.5036 24.7573 47.6327 24.6653 47.6775 24.5297L51.1496 13.9971ZM117.695 24.0951C118.318 24.6583 119.096 24.94 120.03 24.94C120.648 24.94 121.202 24.8723 121.692 24.7369C121.859 24.6907 121.944 24.5138 121.886 24.3536L121.428 23.0858C121.366 22.9159 121.17 22.8338 120.994 22.8881C120.946 22.9029 120.897 22.917 120.847 22.9305C120.691 22.9609 120.528 22.9761 120.357 22.9761C119.983 22.9761 119.648 22.8467 119.353 22.5879C119.057 22.3139 118.909 21.8039 118.909 21.0579V15.7952C118.909 15.6245 119.051 15.4861 119.225 15.4861H121.395C121.569 15.4861 121.711 15.3477 121.711 15.177V13.877C121.711 13.7063 121.569 13.5679 121.395 13.5679H119.225C119.051 13.5679 118.909 13.4295 118.909 13.2588V8.71536C118.909 8.54464 118.768 8.40625 118.593 8.40625H117.077C116.903 8.40625 116.761 8.54464 116.761 8.71536V13.2588C116.761 13.4295 116.62 13.5679 116.445 13.5679H115.07C114.895 13.5679 114.754 13.7063 114.754 13.877V15.177C114.754 15.3477 114.895 15.4861 115.07 15.4861H116.445C116.62 15.4861 116.761 15.6245 116.761 15.7952V21.743C116.777 22.7478 117.088 23.5318 117.695 24.0951ZM87.021 23.7525C88.0638 22.8391 88.5852 21.6973 88.5852 20.3272C88.5852 19.4899 88.344 18.7363 87.8615 18.0665C87.6395 17.748 87.3205 17.3432 86.3849 16.8301C86.1873 16.7217 86.1821 16.4329 86.3691 16.3076C87.4885 15.5572 88.0483 14.421 88.0483 13.0883C88.0483 11.8248 87.5736 10.7972 86.6242 10.0055C85.6592 9.18347 84.4685 8.77243 83.0522 8.77243C81.916 8.77243 80.9277 9.06929 80.0873 9.66302C79.3384 10.1921 78.781 10.8662 78.4152 11.6853C78.3394 11.855 78.4265 12.0489 78.6008 12.1212L79.928 12.671C80.1159 12.7488 80.3307 12.6552 80.415 12.4734C80.9378 11.3458 81.8169 10.782 83.0522 10.782C83.8927 10.782 84.5697 10.9951 85.0833 11.4214C85.5969 11.8476 85.8537 12.4033 85.8537 13.0883C85.8537 13.8343 85.5814 14.4433 85.0366 14.9152C84.4919 15.3719 83.7915 15.6003 82.9355 15.6003H82.077C81.8807 15.6003 81.7215 15.7559 81.7215 15.948V17.2164C81.7215 17.4084 81.8807 17.5641 82.077 17.5641H83.0989C84.0016 17.5641 84.772 17.8305 85.4102 18.3634C86.0638 18.8962 86.3907 19.5508 86.3907 20.3272C86.3907 21.1036 86.0794 21.7658 85.4569 22.3139C84.8187 22.8467 84.0639 23.1131 83.1923 23.1131C82.3985 23.1131 81.7137 22.8848 81.1378 22.4281C80.6609 22.0264 80.2967 21.4813 80.0454 20.7928C79.9736 20.5962 79.7503 20.4893 79.5533 20.5696L78.2548 21.0988C78.0883 21.1666 77.999 21.3462 78.0574 21.5131C78.4204 22.5508 79.0503 23.4039 79.9472 24.0722C80.9122 24.7725 81.9939 25.1227 83.1923 25.1227C84.7176 25.1227 85.9938 24.666 87.021 23.7525ZM92.3965 21.332C92.3965 20.723 92.6844 20.213 93.2603 19.802C93.8517 19.3909 94.5832 19.1854 95.4548 19.1854C96.573 19.1854 97.4608 19.4107 98.1183 19.8613C98.2073 19.9223 98.2575 20.0239 98.2519 20.1301C98.209 20.9429 97.8525 21.6555 97.1824 22.2682C96.482 22.9228 95.6805 23.2502 94.7778 23.2502C94.1396 23.2502 93.5793 23.0675 93.0968 22.7021C92.6299 22.3367 92.3965 21.88 92.3965 21.332ZM98.9333 14.4585C98.0151 13.6212 96.7622 13.2025 95.1746 13.2025C93.2607 13.2025 91.7856 13.8465 90.7494 15.1343C90.6378 15.273 90.6799 15.4734 90.8325 15.5674L92.1871 16.4017C92.3303 16.4898 92.5181 16.451 92.6238 16.3218C93.3038 15.4906 94.193 15.075 95.2914 15.075C96.0851 15.075 96.7777 15.3338 97.3692 15.8514C97.9644 16.357 98.175 16.9647 98.2355 17.651C98.2562 17.8869 97.9929 18.0395 97.7695 17.9483C97.0303 17.6465 96.142 17.4956 95.1046 17.4956C93.6105 17.4956 92.412 17.8381 91.5093 18.5232C90.6222 19.2083 90.1786 20.1293 90.1786 21.2863C90.1786 22.3824 90.5988 23.2958 91.4393 24.0266C92.2953 24.7573 93.3537 25.1227 94.6143 25.1227C96.0929 25.1227 97.2758 24.4833 98.1629 23.2045V24.4482C98.1629 24.6189 98.3044 24.7573 98.479 24.7573H99.9947C100.169 24.7573 100.311 24.6189 100.311 24.4482V17.861C100.311 16.4147 99.8516 15.2806 98.9333 14.4585ZM112.772 24.4289C112.772 24.6103 112.622 24.7573 112.436 24.7573H110.96C110.775 24.7573 110.624 24.6103 110.624 24.4289V24.062C110.624 23.8254 110.258 23.7119 110.086 23.8779C109.815 24.1386 109.489 24.3708 109.107 24.5746C108.437 24.94 107.737 25.1227 107.006 25.1227C105.605 25.1227 104.523 24.7345 103.761 23.9581C103.013 23.1664 102.64 22.0475 102.64 20.6012V13.8963C102.64 13.7149 102.79 13.5679 102.976 13.5679H104.452C104.637 13.5679 104.788 13.7149 104.788 13.8963V20.4642C104.834 22.2911 105.776 23.2045 107.613 23.2045C108.469 23.2045 109.185 22.8696 109.76 22.1997C110.336 21.5147 110.624 20.7002 110.624 19.7563V13.8963C110.624 13.7149 110.775 13.5679 110.96 13.5679H112.436C112.622 13.5679 112.772 13.7149 112.772 13.8963V24.4289ZM123.868 8.71536C123.868 8.54464 124.009 8.40625 124.184 8.40625H125.7C125.874 8.40625 126.016 8.54464 126.016 8.71536V14.2632C126.016 14.4998 126.38 14.6123 126.552 14.4452C126.818 14.1854 127.137 13.9539 127.51 13.7506C128.195 13.3852 128.903 13.2025 129.634 13.2025C131.035 13.2025 132.109 13.5983 132.856 14.39C133.619 15.1664 134 16.2777 134 17.724V24.4482C134 24.6189 133.859 24.7573 133.684 24.7573H132.168C131.994 24.7573 131.852 24.6189 131.852 24.4482V18.135C131.852 16.1255 130.942 15.1207 129.121 15.1207C128.249 15.1207 127.51 15.4785 126.903 16.194C126.311 16.8943 126.016 17.7163 126.016 18.6602V24.4482C126.016 24.6189 125.874 24.7573 125.7 24.7573H124.184C124.009 24.7573 123.868 24.6189 123.868 24.4482V8.71536Z" fill="white"/>
</svg>
