<svg width="321" height="15" viewBox="0 0 321 15" fill="none" xmlns="http://www.w3.org/2000/svg">
<mask id="path-1-inside-1_4201_29487" fill="white">
<path d="M4.59313 14.3043L0.577133 0.32025H2.24113L6.24113 14.3043H4.59313ZM19.2081 14.3043L15.1921 0.32025H16.8561L20.8561 14.3043H19.2081ZM33.8231 14.3043L29.8071 0.32025H31.4711L35.4711 14.3043H33.8231ZM48.4381 14.3043L44.4221 0.32025H46.0861L50.0861 14.3043H48.4381ZM79.4494 14.3043L75.4334 0.32025H77.0974L81.0974 14.3043H79.4494ZM94.0644 14.3043L90.0484 0.32025H91.7124L95.7124 14.3043H94.0644ZM108.679 14.3043L104.663 0.32025H106.327L110.327 14.3043H108.679ZM139.691 14.3043L135.675 0.32025H137.339L141.339 14.3043H139.691ZM154.306 14.3043L150.29 0.32025H151.954L155.954 14.3043H154.306ZM168.921 14.3043L164.905 0.32025H166.569L170.569 14.3043H168.921ZM183.536 14.3043L179.52 0.32025H181.184L185.184 14.3043H183.536ZM214.547 14.3043L210.531 0.32025H212.195L216.195 14.3043H214.547ZM229.162 14.3043L225.146 0.32025H226.81L230.81 14.3043H229.162ZM243.777 14.3043L239.761 0.32025H241.425L245.425 14.3043H243.777ZM274.788 14.3043L270.772 0.32025H272.436L276.436 14.3043H274.788ZM289.403 14.3043L285.387 0.32025H287.051L291.051 14.3043H289.403ZM304.018 14.3043L300.002 0.32025H301.666L305.666 14.3043H304.018ZM318.633 14.3043L314.617 0.32025H316.281L320.281 14.3043H318.633Z"/>
</mask>
<path d="M4.59313 14.3043L3.63198 14.5803L3.8399 15.3043H4.59313V14.3043ZM0.577133 0.32025V-0.67975H-0.750473L-0.384017 0.596278L0.577133 0.32025ZM2.24113 0.32025L3.20257 0.0452378L2.9952 -0.67975H2.24113V0.32025ZM6.24113 14.3043V15.3043H7.56728L7.20257 14.0292L6.24113 14.3043ZM5.55428 14.0282L1.53828 0.0442214L-0.384017 0.596278L3.63198 14.5803L5.55428 14.0282ZM0.577133 1.32025H2.24113V-0.67975H0.577133V1.32025ZM1.27969 0.595261L5.27969 14.5793L7.20257 14.0292L3.20257 0.0452378L1.27969 0.595261ZM6.24113 13.3043H4.59313V15.3043H6.24113V13.3043ZM19.2081 14.3043L18.247 14.5803L18.4549 15.3043H19.2081V14.3043ZM15.1921 0.32025V-0.67975H13.8645L14.231 0.596278L15.1921 0.32025ZM16.8561 0.32025L17.8176 0.0452378L17.6102 -0.67975H16.8561V0.32025ZM20.8561 14.3043V15.3043H22.1823L21.8176 14.0292L20.8561 14.3043ZM20.1693 14.0282L16.1533 0.0442214L14.231 0.596278L18.247 14.5803L20.1693 14.0282ZM15.1921 1.32025H16.8561V-0.67975H15.1921V1.32025ZM15.8947 0.595261L19.8947 14.5793L21.8176 14.0292L17.8176 0.0452378L15.8947 0.595261ZM20.8561 13.3043H19.2081V15.3043H20.8561V13.3043ZM33.8231 14.3043L32.862 14.5803L33.0699 15.3043H33.8231V14.3043ZM29.8071 0.32025V-0.67975H28.4795L28.846 0.596278L29.8071 0.32025ZM31.4711 0.32025L32.4326 0.0452378L32.2252 -0.67975H31.4711V0.32025ZM35.4711 14.3043V15.3043H36.7973L36.4326 14.0292L35.4711 14.3043ZM34.7843 14.0282L30.7683 0.0442214L28.846 0.596278L32.862 14.5803L34.7843 14.0282ZM29.8071 1.32025H31.4711V-0.67975H29.8071V1.32025ZM30.5097 0.595261L34.5097 14.5793L36.4326 14.0292L32.4326 0.0452378L30.5097 0.595261ZM35.4711 13.3043H33.8231V15.3043H35.4711V13.3043ZM48.4381 14.3043L47.477 14.5803L47.6849 15.3043H48.4381V14.3043ZM44.4221 0.32025V-0.67975H43.0945L43.461 0.596278L44.4221 0.32025ZM46.0861 0.32025L47.0476 0.0452378L46.8402 -0.67975H46.0861V0.32025ZM50.0861 14.3043V15.3043H51.4123L51.0476 14.0292L50.0861 14.3043ZM49.3993 14.0282L45.3833 0.0442214L43.461 0.596278L47.477 14.5803L49.3993 14.0282ZM44.4221 1.32025H46.0861V-0.67975H44.4221V1.32025ZM45.1247 0.595261L49.1247 14.5793L51.0476 14.0292L47.0476 0.0452378L45.1247 0.595261ZM50.0861 13.3043H48.4381V15.3043H50.0861V13.3043ZM79.4494 14.3043L78.4882 14.5803L78.6961 15.3043H79.4494V14.3043ZM75.4334 0.32025V-0.67975H74.1058L74.4722 0.596278L75.4334 0.32025ZM77.0974 0.32025L78.0588 0.0452378L77.8514 -0.67975H77.0974V0.32025ZM81.0974 14.3043V15.3043H82.4235L82.0588 14.0292L81.0974 14.3043ZM80.4105 14.0282L76.3945 0.0442214L74.4722 0.596278L78.4882 14.5803L80.4105 14.0282ZM75.4334 1.32025H77.0974V-0.67975H75.4334V1.32025ZM76.1359 0.595261L80.1359 14.5793L82.0588 14.0292L78.0588 0.0452378L76.1359 0.595261ZM81.0974 13.3043H79.4494V15.3043H81.0974V13.3043ZM94.0644 14.3043L93.1032 14.5803L93.3111 15.3043H94.0644V14.3043ZM90.0484 0.32025V-0.67975H88.7208L89.0872 0.596278L90.0484 0.32025ZM91.7124 0.32025L92.6738 0.0452378L92.4665 -0.67975H91.7124V0.32025ZM95.7124 14.3043V15.3043H97.0385L96.6738 14.0292L95.7124 14.3043ZM95.0255 14.0282L91.0095 0.0442214L89.0872 0.596278L93.1032 14.5803L95.0255 14.0282ZM90.0484 1.32025H91.7124V-0.67975H90.0484V1.32025ZM90.7509 0.595261L94.7509 14.5793L96.6738 14.0292L92.6738 0.0452378L90.7509 0.595261ZM95.7124 13.3043H94.0644V15.3043H95.7124V13.3043ZM108.679 14.3043L107.718 14.5803L107.926 15.3043H108.679V14.3043ZM104.663 0.32025V-0.67975H103.336L103.702 0.596278L104.663 0.32025ZM106.327 0.32025L107.289 0.0452378L107.081 -0.67975H106.327V0.32025ZM110.327 14.3043V15.3043H111.654L111.289 14.0292L110.327 14.3043ZM109.641 14.0282L105.625 0.0442214L103.702 0.596278L107.718 14.5803L109.641 14.0282ZM104.663 1.32025H106.327V-0.67975H104.663V1.32025ZM105.366 0.595261L109.366 14.5793L111.289 14.0292L107.289 0.0452378L105.366 0.595261ZM110.327 13.3043H108.679V15.3043H110.327V13.3043ZM139.691 14.3043L138.729 14.5803L138.937 15.3043H139.691V14.3043ZM135.675 0.32025V-0.67975H134.347L134.713 0.596278L135.675 0.32025ZM137.339 0.32025L138.3 0.0452378L138.093 -0.67975H137.339V0.32025ZM141.339 14.3043V15.3043H142.665L142.3 14.0292L141.339 14.3043ZM140.652 14.0282L136.636 0.0442214L134.713 0.596278L138.729 14.5803L140.652 14.0282ZM135.675 1.32025H137.339V-0.67975H135.675V1.32025ZM136.377 0.595261L140.377 14.5793L142.3 14.0292L138.3 0.0452378L136.377 0.595261ZM141.339 13.3043H139.691V15.3043H141.339V13.3043ZM154.306 14.3043L153.344 14.5803L153.552 15.3043H154.306V14.3043ZM150.29 0.32025V-0.67975H148.962L149.328 0.596278L150.29 0.32025ZM151.954 0.32025L152.915 0.0452378L152.708 -0.67975H151.954V0.32025ZM155.954 14.3043V15.3043H157.28L156.915 14.0292L155.954 14.3043ZM155.267 14.0282L151.251 0.0442214L149.328 0.596278L153.344 14.5803L155.267 14.0282ZM150.29 1.32025H151.954V-0.67975H150.29V1.32025ZM150.992 0.595261L154.992 14.5793L156.915 14.0292L152.915 0.0452378L150.992 0.595261ZM155.954 13.3043H154.306V15.3043H155.954V13.3043ZM168.921 14.3043L167.959 14.5803L168.167 15.3043H168.921V14.3043ZM164.905 0.32025V-0.67975H163.577L163.943 0.596278L164.905 0.32025ZM166.569 0.32025L167.53 0.0452378L167.323 -0.67975H166.569V0.32025ZM170.569 14.3043V15.3043H171.895L171.53 14.0292L170.569 14.3043ZM169.882 14.0282L165.866 0.0442214L163.943 0.596278L167.959 14.5803L169.882 14.0282ZM164.905 1.32025H166.569V-0.67975H164.905V1.32025ZM165.607 0.595261L169.607 14.5793L171.53 14.0292L167.53 0.0452378L165.607 0.595261ZM170.569 13.3043H168.921V15.3043H170.569V13.3043ZM183.536 14.3043L182.574 14.5803L182.782 15.3043H183.536V14.3043ZM179.52 0.32025V-0.67975H178.192L178.558 0.596278L179.52 0.32025ZM181.184 0.32025L182.145 0.0452378L181.938 -0.67975H181.184V0.32025ZM185.184 14.3043V15.3043H186.51L186.145 14.0292L185.184 14.3043ZM184.497 14.0282L180.481 0.0442214L178.558 0.596278L182.574 14.5803L184.497 14.0282ZM179.52 1.32025H181.184V-0.67975H179.52V1.32025ZM180.222 0.595261L184.222 14.5793L186.145 14.0292L182.145 0.0452378L180.222 0.595261ZM185.184 13.3043H183.536V15.3043H185.184V13.3043ZM214.547 14.3043L213.586 14.5803L213.794 15.3043H214.547V14.3043ZM210.531 0.32025V-0.67975H209.203L209.57 0.596278L210.531 0.32025ZM212.195 0.32025L213.156 0.0452378L212.949 -0.67975H212.195V0.32025ZM216.195 14.3043V15.3043H217.521L217.156 14.0292L216.195 14.3043ZM215.508 14.0282L211.492 0.0442214L209.57 0.596278L213.586 14.5803L215.508 14.0282ZM210.531 1.32025H212.195V-0.67975H210.531V1.32025ZM211.233 0.595261L215.233 14.5793L217.156 14.0292L213.156 0.0452378L211.233 0.595261ZM216.195 13.3043H214.547V15.3043H216.195V13.3043ZM229.162 14.3043L228.201 14.5803L228.409 15.3043H229.162V14.3043ZM225.146 0.32025V-0.67975H223.818L224.185 0.596278L225.146 0.32025ZM226.81 0.32025L227.771 0.0452378L227.564 -0.67975H226.81V0.32025ZM230.81 14.3043V15.3043H232.136L231.771 14.0292L230.81 14.3043ZM230.123 14.0282L226.107 0.0442214L224.185 0.596278L228.201 14.5803L230.123 14.0282ZM225.146 1.32025H226.81V-0.67975H225.146V1.32025ZM225.848 0.595261L229.848 14.5793L231.771 14.0292L227.771 0.0452378L225.848 0.595261ZM230.81 13.3043H229.162V15.3043H230.81V13.3043ZM243.777 14.3043L242.816 14.5803L243.024 15.3043H243.777V14.3043ZM239.761 0.32025V-0.67975H238.433L238.8 0.596278L239.761 0.32025ZM241.425 0.32025L242.386 0.0452378L242.179 -0.67975H241.425V0.32025ZM245.425 14.3043V15.3043H246.751L246.386 14.0292L245.425 14.3043ZM244.738 14.0282L240.722 0.0442214L238.8 0.596278L242.816 14.5803L244.738 14.0282ZM239.761 1.32025H241.425V-0.67975H239.761V1.32025ZM240.463 0.595261L244.463 14.5793L246.386 14.0292L242.386 0.0452378L240.463 0.595261ZM245.425 13.3043H243.777V15.3043H245.425V13.3043ZM274.788 14.3043L273.827 14.5803L274.035 15.3043H274.788V14.3043ZM270.772 0.32025V-0.67975H269.445L269.811 0.596278L270.772 0.32025ZM272.436 0.32025L273.398 0.0452378L273.19 -0.67975H272.436V0.32025ZM276.436 14.3043V15.3043H277.762L277.398 14.0292L276.436 14.3043ZM275.749 14.0282L271.733 0.0442214L269.811 0.596278L273.827 14.5803L275.749 14.0282ZM270.772 1.32025H272.436V-0.67975H270.772V1.32025ZM271.475 0.595261L275.475 14.5793L277.398 14.0292L273.398 0.0452378L271.475 0.595261ZM276.436 13.3043H274.788V15.3043H276.436V13.3043ZM289.403 14.3043L288.442 14.5803L288.65 15.3043H289.403V14.3043ZM285.387 0.32025V-0.67975H284.06L284.426 0.596278L285.387 0.32025ZM287.051 0.32025L288.013 0.0452378L287.805 -0.67975H287.051V0.32025ZM291.051 14.3043V15.3043H292.377L292.013 14.0292L291.051 14.3043ZM290.364 14.0282L286.348 0.0442214L284.426 0.596278L288.442 14.5803L290.364 14.0282ZM285.387 1.32025H287.051V-0.67975H285.387V1.32025ZM286.09 0.595261L290.09 14.5793L292.013 14.0292L288.013 0.0452378L286.09 0.595261ZM291.051 13.3043H289.403V15.3043H291.051V13.3043ZM304.018 14.3043L303.057 14.5803L303.265 15.3043H304.018V14.3043ZM300.002 0.32025V-0.67975H298.674L299.041 0.596278L300.002 0.32025ZM301.666 0.32025L302.628 0.0452378L302.42 -0.67975H301.666V0.32025ZM305.666 14.3043V15.3043H306.992L306.628 14.0292L305.666 14.3043ZM304.979 14.0282L300.963 0.0442214L299.041 0.596278L303.057 14.5803L304.979 14.0282ZM300.002 1.32025H301.666V-0.67975H300.002V1.32025ZM300.705 0.595261L304.705 14.5793L306.628 14.0292L302.628 0.0452378L300.705 0.595261ZM305.666 13.3043H304.018V15.3043H305.666V13.3043ZM318.633 14.3043L317.672 14.5803L317.88 15.3043H318.633V14.3043ZM314.617 0.32025V-0.67975H313.29L313.656 0.596278L314.617 0.32025ZM316.281 0.32025L317.243 0.0452378L317.035 -0.67975H316.281V0.32025ZM320.281 14.3043V15.3043H321.607L321.243 14.0292L320.281 14.3043ZM319.594 14.0282L315.578 0.0442214L313.656 0.596278L317.672 14.5803L319.594 14.0282ZM314.617 1.32025H316.281V-0.67975H314.617V1.32025ZM315.32 0.595261L319.32 14.5793L321.243 14.0292L317.243 0.0452378L315.32 0.595261ZM320.281 13.3043H318.633V15.3043H320.281V13.3043Z" fill="white" mask="url(#path-1-inside-1_4201_29487)"/>
<path d="M4.59313 14.3043L3.63198 14.5803L3.8399 15.3043H4.59313V14.3043ZM0.577133 0.32025V-0.67975H-0.750473L-0.384017 0.596278L0.577133 0.32025ZM2.24113 0.32025L3.20257 0.0452378L2.9952 -0.67975H2.24113V0.32025ZM6.24113 14.3043V15.3043H7.56728L7.20257 14.0292L6.24113 14.3043ZM5.55428 14.0282L1.53828 0.0442214L-0.384017 0.596278L3.63198 14.5803L5.55428 14.0282ZM0.577133 1.32025H2.24113V-0.67975H0.577133V1.32025ZM1.27969 0.595261L5.27969 14.5793L7.20257 14.0292L3.20257 0.0452378L1.27969 0.595261ZM6.24113 13.3043H4.59313V15.3043H6.24113V13.3043ZM19.2081 14.3043L18.247 14.5803L18.4549 15.3043H19.2081V14.3043ZM15.1921 0.32025V-0.67975H13.8645L14.231 0.596278L15.1921 0.32025ZM16.8561 0.32025L17.8176 0.0452378L17.6102 -0.67975H16.8561V0.32025ZM20.8561 14.3043V15.3043H22.1823L21.8176 14.0292L20.8561 14.3043ZM20.1693 14.0282L16.1533 0.0442214L14.231 0.596278L18.247 14.5803L20.1693 14.0282ZM15.1921 1.32025H16.8561V-0.67975H15.1921V1.32025ZM15.8947 0.595261L19.8947 14.5793L21.8176 14.0292L17.8176 0.0452378L15.8947 0.595261ZM20.8561 13.3043H19.2081V15.3043H20.8561V13.3043ZM33.8231 14.3043L32.862 14.5803L33.0699 15.3043H33.8231V14.3043ZM29.8071 0.32025V-0.67975H28.4795L28.846 0.596278L29.8071 0.32025ZM31.4711 0.32025L32.4326 0.0452378L32.2252 -0.67975H31.4711V0.32025ZM35.4711 14.3043V15.3043H36.7973L36.4326 14.0292L35.4711 14.3043ZM34.7843 14.0282L30.7683 0.0442214L28.846 0.596278L32.862 14.5803L34.7843 14.0282ZM29.8071 1.32025H31.4711V-0.67975H29.8071V1.32025ZM30.5097 0.595261L34.5097 14.5793L36.4326 14.0292L32.4326 0.0452378L30.5097 0.595261ZM35.4711 13.3043H33.8231V15.3043H35.4711V13.3043ZM48.4381 14.3043L47.477 14.5803L47.6849 15.3043H48.4381V14.3043ZM44.4221 0.32025V-0.67975H43.0945L43.461 0.596278L44.4221 0.32025ZM46.0861 0.32025L47.0476 0.0452378L46.8402 -0.67975H46.0861V0.32025ZM50.0861 14.3043V15.3043H51.4123L51.0476 14.0292L50.0861 14.3043ZM49.3993 14.0282L45.3833 0.0442214L43.461 0.596278L47.477 14.5803L49.3993 14.0282ZM44.4221 1.32025H46.0861V-0.67975H44.4221V1.32025ZM45.1247 0.595261L49.1247 14.5793L51.0476 14.0292L47.0476 0.0452378L45.1247 0.595261ZM50.0861 13.3043H48.4381V15.3043H50.0861V13.3043ZM79.4494 14.3043L78.4882 14.5803L78.6961 15.3043H79.4494V14.3043ZM75.4334 0.32025V-0.67975H74.1058L74.4722 0.596278L75.4334 0.32025ZM77.0974 0.32025L78.0588 0.0452378L77.8514 -0.67975H77.0974V0.32025ZM81.0974 14.3043V15.3043H82.4235L82.0588 14.0292L81.0974 14.3043ZM80.4105 14.0282L76.3945 0.0442214L74.4722 0.596278L78.4882 14.5803L80.4105 14.0282ZM75.4334 1.32025H77.0974V-0.67975H75.4334V1.32025ZM76.1359 0.595261L80.1359 14.5793L82.0588 14.0292L78.0588 0.0452378L76.1359 0.595261ZM81.0974 13.3043H79.4494V15.3043H81.0974V13.3043ZM94.0644 14.3043L93.1032 14.5803L93.3111 15.3043H94.0644V14.3043ZM90.0484 0.32025V-0.67975H88.7208L89.0872 0.596278L90.0484 0.32025ZM91.7124 0.32025L92.6738 0.0452378L92.4665 -0.67975H91.7124V0.32025ZM95.7124 14.3043V15.3043H97.0385L96.6738 14.0292L95.7124 14.3043ZM95.0255 14.0282L91.0095 0.0442214L89.0872 0.596278L93.1032 14.5803L95.0255 14.0282ZM90.0484 1.32025H91.7124V-0.67975H90.0484V1.32025ZM90.7509 0.595261L94.7509 14.5793L96.6738 14.0292L92.6738 0.0452378L90.7509 0.595261ZM95.7124 13.3043H94.0644V15.3043H95.7124V13.3043ZM108.679 14.3043L107.718 14.5803L107.926 15.3043H108.679V14.3043ZM104.663 0.32025V-0.67975H103.336L103.702 0.596278L104.663 0.32025ZM106.327 0.32025L107.289 0.0452378L107.081 -0.67975H106.327V0.32025ZM110.327 14.3043V15.3043H111.654L111.289 14.0292L110.327 14.3043ZM109.641 14.0282L105.625 0.0442214L103.702 0.596278L107.718 14.5803L109.641 14.0282ZM104.663 1.32025H106.327V-0.67975H104.663V1.32025ZM105.366 0.595261L109.366 14.5793L111.289 14.0292L107.289 0.0452378L105.366 0.595261ZM110.327 13.3043H108.679V15.3043H110.327V13.3043ZM139.691 14.3043L138.729 14.5803L138.937 15.3043H139.691V14.3043ZM135.675 0.32025V-0.67975H134.347L134.713 0.596278L135.675 0.32025ZM137.339 0.32025L138.3 0.0452378L138.093 -0.67975H137.339V0.32025ZM141.339 14.3043V15.3043H142.665L142.3 14.0292L141.339 14.3043ZM140.652 14.0282L136.636 0.0442214L134.713 0.596278L138.729 14.5803L140.652 14.0282ZM135.675 1.32025H137.339V-0.67975H135.675V1.32025ZM136.377 0.595261L140.377 14.5793L142.3 14.0292L138.3 0.0452378L136.377 0.595261ZM141.339 13.3043H139.691V15.3043H141.339V13.3043ZM154.306 14.3043L153.344 14.5803L153.552 15.3043H154.306V14.3043ZM150.29 0.32025V-0.67975H148.962L149.328 0.596278L150.29 0.32025ZM151.954 0.32025L152.915 0.0452378L152.708 -0.67975H151.954V0.32025ZM155.954 14.3043V15.3043H157.28L156.915 14.0292L155.954 14.3043ZM155.267 14.0282L151.251 0.0442214L149.328 0.596278L153.344 14.5803L155.267 14.0282ZM150.29 1.32025H151.954V-0.67975H150.29V1.32025ZM150.992 0.595261L154.992 14.5793L156.915 14.0292L152.915 0.0452378L150.992 0.595261ZM155.954 13.3043H154.306V15.3043H155.954V13.3043ZM168.921 14.3043L167.959 14.5803L168.167 15.3043H168.921V14.3043ZM164.905 0.32025V-0.67975H163.577L163.943 0.596278L164.905 0.32025ZM166.569 0.32025L167.53 0.0452378L167.323 -0.67975H166.569V0.32025ZM170.569 14.3043V15.3043H171.895L171.53 14.0292L170.569 14.3043ZM169.882 14.0282L165.866 0.0442214L163.943 0.596278L167.959 14.5803L169.882 14.0282ZM164.905 1.32025H166.569V-0.67975H164.905V1.32025ZM165.607 0.595261L169.607 14.5793L171.53 14.0292L167.53 0.0452378L165.607 0.595261ZM170.569 13.3043H168.921V15.3043H170.569V13.3043ZM183.536 14.3043L182.574 14.5803L182.782 15.3043H183.536V14.3043ZM179.52 0.32025V-0.67975H178.192L178.558 0.596278L179.52 0.32025ZM181.184 0.32025L182.145 0.0452378L181.938 -0.67975H181.184V0.32025ZM185.184 14.3043V15.3043H186.51L186.145 14.0292L185.184 14.3043ZM184.497 14.0282L180.481 0.0442214L178.558 0.596278L182.574 14.5803L184.497 14.0282ZM179.52 1.32025H181.184V-0.67975H179.52V1.32025ZM180.222 0.595261L184.222 14.5793L186.145 14.0292L182.145 0.0452378L180.222 0.595261ZM185.184 13.3043H183.536V15.3043H185.184V13.3043ZM214.547 14.3043L213.586 14.5803L213.794 15.3043H214.547V14.3043ZM210.531 0.32025V-0.67975H209.203L209.57 0.596278L210.531 0.32025ZM212.195 0.32025L213.156 0.0452378L212.949 -0.67975H212.195V0.32025ZM216.195 14.3043V15.3043H217.521L217.156 14.0292L216.195 14.3043ZM215.508 14.0282L211.492 0.0442214L209.57 0.596278L213.586 14.5803L215.508 14.0282ZM210.531 1.32025H212.195V-0.67975H210.531V1.32025ZM211.233 0.595261L215.233 14.5793L217.156 14.0292L213.156 0.0452378L211.233 0.595261ZM216.195 13.3043H214.547V15.3043H216.195V13.3043ZM229.162 14.3043L228.201 14.5803L228.409 15.3043H229.162V14.3043ZM225.146 0.32025V-0.67975H223.818L224.185 0.596278L225.146 0.32025ZM226.81 0.32025L227.771 0.0452378L227.564 -0.67975H226.81V0.32025ZM230.81 14.3043V15.3043H232.136L231.771 14.0292L230.81 14.3043ZM230.123 14.0282L226.107 0.0442214L224.185 0.596278L228.201 14.5803L230.123 14.0282ZM225.146 1.32025H226.81V-0.67975H225.146V1.32025ZM225.848 0.595261L229.848 14.5793L231.771 14.0292L227.771 0.0452378L225.848 0.595261ZM230.81 13.3043H229.162V15.3043H230.81V13.3043ZM243.777 14.3043L242.816 14.5803L243.024 15.3043H243.777V14.3043ZM239.761 0.32025V-0.67975H238.433L238.8 0.596278L239.761 0.32025ZM241.425 0.32025L242.386 0.0452378L242.179 -0.67975H241.425V0.32025ZM245.425 14.3043V15.3043H246.751L246.386 14.0292L245.425 14.3043ZM244.738 14.0282L240.722 0.0442214L238.8 0.596278L242.816 14.5803L244.738 14.0282ZM239.761 1.32025H241.425V-0.67975H239.761V1.32025ZM240.463 0.595261L244.463 14.5793L246.386 14.0292L242.386 0.0452378L240.463 0.595261ZM245.425 13.3043H243.777V15.3043H245.425V13.3043ZM274.788 14.3043L273.827 14.5803L274.035 15.3043H274.788V14.3043ZM270.772 0.32025V-0.67975H269.445L269.811 0.596278L270.772 0.32025ZM272.436 0.32025L273.398 0.0452378L273.19 -0.67975H272.436V0.32025ZM276.436 14.3043V15.3043H277.762L277.398 14.0292L276.436 14.3043ZM275.749 14.0282L271.733 0.0442214L269.811 0.596278L273.827 14.5803L275.749 14.0282ZM270.772 1.32025H272.436V-0.67975H270.772V1.32025ZM271.475 0.595261L275.475 14.5793L277.398 14.0292L273.398 0.0452378L271.475 0.595261ZM276.436 13.3043H274.788V15.3043H276.436V13.3043ZM289.403 14.3043L288.442 14.5803L288.65 15.3043H289.403V14.3043ZM285.387 0.32025V-0.67975H284.06L284.426 0.596278L285.387 0.32025ZM287.051 0.32025L288.013 0.0452378L287.805 -0.67975H287.051V0.32025ZM291.051 14.3043V15.3043H292.377L292.013 14.0292L291.051 14.3043ZM290.364 14.0282L286.348 0.0442214L284.426 0.596278L288.442 14.5803L290.364 14.0282ZM285.387 1.32025H287.051V-0.67975H285.387V1.32025ZM286.09 0.595261L290.09 14.5793L292.013 14.0292L288.013 0.0452378L286.09 0.595261ZM291.051 13.3043H289.403V15.3043H291.051V13.3043ZM304.018 14.3043L303.057 14.5803L303.265 15.3043H304.018V14.3043ZM300.002 0.32025V-0.67975H298.674L299.041 0.596278L300.002 0.32025ZM301.666 0.32025L302.628 0.0452378L302.42 -0.67975H301.666V0.32025ZM305.666 14.3043V15.3043H306.992L306.628 14.0292L305.666 14.3043ZM304.979 14.0282L300.963 0.0442214L299.041 0.596278L303.057 14.5803L304.979 14.0282ZM300.002 1.32025H301.666V-0.67975H300.002V1.32025ZM300.705 0.595261L304.705 14.5793L306.628 14.0292L302.628 0.0452378L300.705 0.595261ZM305.666 13.3043H304.018V15.3043H305.666V13.3043ZM318.633 14.3043L317.672 14.5803L317.88 15.3043H318.633V14.3043ZM314.617 0.32025V-0.67975H313.29L313.656 0.596278L314.617 0.32025ZM316.281 0.32025L317.243 0.0452378L317.035 -0.67975H316.281V0.32025ZM320.281 14.3043V15.3043H321.607L321.243 14.0292L320.281 14.3043ZM319.594 14.0282L315.578 0.0442214L313.656 0.596278L317.672 14.5803L319.594 14.0282ZM314.617 1.32025H316.281V-0.67975H314.617V1.32025ZM315.32 0.595261L319.32 14.5793L321.243 14.0292L317.243 0.0452378L315.32 0.595261ZM320.281 13.3043H318.633V15.3043H320.281V13.3043Z" fill="url(#paint0_radial_4201_29487)" mask="url(#path-1-inside-1_4201_29487)"/>
<path d="M4.59313 14.3043L3.63198 14.5803L3.8399 15.3043H4.59313V14.3043ZM0.577133 0.32025V-0.67975H-0.750473L-0.384017 0.596278L0.577133 0.32025ZM2.24113 0.32025L3.20257 0.0452378L2.9952 -0.67975H2.24113V0.32025ZM6.24113 14.3043V15.3043H7.56728L7.20257 14.0292L6.24113 14.3043ZM5.55428 14.0282L1.53828 0.0442214L-0.384017 0.596278L3.63198 14.5803L5.55428 14.0282ZM0.577133 1.32025H2.24113V-0.67975H0.577133V1.32025ZM1.27969 0.595261L5.27969 14.5793L7.20257 14.0292L3.20257 0.0452378L1.27969 0.595261ZM6.24113 13.3043H4.59313V15.3043H6.24113V13.3043ZM19.2081 14.3043L18.247 14.5803L18.4549 15.3043H19.2081V14.3043ZM15.1921 0.32025V-0.67975H13.8645L14.231 0.596278L15.1921 0.32025ZM16.8561 0.32025L17.8176 0.0452378L17.6102 -0.67975H16.8561V0.32025ZM20.8561 14.3043V15.3043H22.1823L21.8176 14.0292L20.8561 14.3043ZM20.1693 14.0282L16.1533 0.0442214L14.231 0.596278L18.247 14.5803L20.1693 14.0282ZM15.1921 1.32025H16.8561V-0.67975H15.1921V1.32025ZM15.8947 0.595261L19.8947 14.5793L21.8176 14.0292L17.8176 0.0452378L15.8947 0.595261ZM20.8561 13.3043H19.2081V15.3043H20.8561V13.3043ZM33.8231 14.3043L32.862 14.5803L33.0699 15.3043H33.8231V14.3043ZM29.8071 0.32025V-0.67975H28.4795L28.846 0.596278L29.8071 0.32025ZM31.4711 0.32025L32.4326 0.0452378L32.2252 -0.67975H31.4711V0.32025ZM35.4711 14.3043V15.3043H36.7973L36.4326 14.0292L35.4711 14.3043ZM34.7843 14.0282L30.7683 0.0442214L28.846 0.596278L32.862 14.5803L34.7843 14.0282ZM29.8071 1.32025H31.4711V-0.67975H29.8071V1.32025ZM30.5097 0.595261L34.5097 14.5793L36.4326 14.0292L32.4326 0.0452378L30.5097 0.595261ZM35.4711 13.3043H33.8231V15.3043H35.4711V13.3043ZM48.4381 14.3043L47.477 14.5803L47.6849 15.3043H48.4381V14.3043ZM44.4221 0.32025V-0.67975H43.0945L43.461 0.596278L44.4221 0.32025ZM46.0861 0.32025L47.0476 0.0452378L46.8402 -0.67975H46.0861V0.32025ZM50.0861 14.3043V15.3043H51.4123L51.0476 14.0292L50.0861 14.3043ZM49.3993 14.0282L45.3833 0.0442214L43.461 0.596278L47.477 14.5803L49.3993 14.0282ZM44.4221 1.32025H46.0861V-0.67975H44.4221V1.32025ZM45.1247 0.595261L49.1247 14.5793L51.0476 14.0292L47.0476 0.0452378L45.1247 0.595261ZM50.0861 13.3043H48.4381V15.3043H50.0861V13.3043ZM79.4494 14.3043L78.4882 14.5803L78.6961 15.3043H79.4494V14.3043ZM75.4334 0.32025V-0.67975H74.1058L74.4722 0.596278L75.4334 0.32025ZM77.0974 0.32025L78.0588 0.0452378L77.8514 -0.67975H77.0974V0.32025ZM81.0974 14.3043V15.3043H82.4235L82.0588 14.0292L81.0974 14.3043ZM80.4105 14.0282L76.3945 0.0442214L74.4722 0.596278L78.4882 14.5803L80.4105 14.0282ZM75.4334 1.32025H77.0974V-0.67975H75.4334V1.32025ZM76.1359 0.595261L80.1359 14.5793L82.0588 14.0292L78.0588 0.0452378L76.1359 0.595261ZM81.0974 13.3043H79.4494V15.3043H81.0974V13.3043ZM94.0644 14.3043L93.1032 14.5803L93.3111 15.3043H94.0644V14.3043ZM90.0484 0.32025V-0.67975H88.7208L89.0872 0.596278L90.0484 0.32025ZM91.7124 0.32025L92.6738 0.0452378L92.4665 -0.67975H91.7124V0.32025ZM95.7124 14.3043V15.3043H97.0385L96.6738 14.0292L95.7124 14.3043ZM95.0255 14.0282L91.0095 0.0442214L89.0872 0.596278L93.1032 14.5803L95.0255 14.0282ZM90.0484 1.32025H91.7124V-0.67975H90.0484V1.32025ZM90.7509 0.595261L94.7509 14.5793L96.6738 14.0292L92.6738 0.0452378L90.7509 0.595261ZM95.7124 13.3043H94.0644V15.3043H95.7124V13.3043ZM108.679 14.3043L107.718 14.5803L107.926 15.3043H108.679V14.3043ZM104.663 0.32025V-0.67975H103.336L103.702 0.596278L104.663 0.32025ZM106.327 0.32025L107.289 0.0452378L107.081 -0.67975H106.327V0.32025ZM110.327 14.3043V15.3043H111.654L111.289 14.0292L110.327 14.3043ZM109.641 14.0282L105.625 0.0442214L103.702 0.596278L107.718 14.5803L109.641 14.0282ZM104.663 1.32025H106.327V-0.67975H104.663V1.32025ZM105.366 0.595261L109.366 14.5793L111.289 14.0292L107.289 0.0452378L105.366 0.595261ZM110.327 13.3043H108.679V15.3043H110.327V13.3043ZM139.691 14.3043L138.729 14.5803L138.937 15.3043H139.691V14.3043ZM135.675 0.32025V-0.67975H134.347L134.713 0.596278L135.675 0.32025ZM137.339 0.32025L138.3 0.0452378L138.093 -0.67975H137.339V0.32025ZM141.339 14.3043V15.3043H142.665L142.3 14.0292L141.339 14.3043ZM140.652 14.0282L136.636 0.0442214L134.713 0.596278L138.729 14.5803L140.652 14.0282ZM135.675 1.32025H137.339V-0.67975H135.675V1.32025ZM136.377 0.595261L140.377 14.5793L142.3 14.0292L138.3 0.0452378L136.377 0.595261ZM141.339 13.3043H139.691V15.3043H141.339V13.3043ZM154.306 14.3043L153.344 14.5803L153.552 15.3043H154.306V14.3043ZM150.29 0.32025V-0.67975H148.962L149.328 0.596278L150.29 0.32025ZM151.954 0.32025L152.915 0.0452378L152.708 -0.67975H151.954V0.32025ZM155.954 14.3043V15.3043H157.28L156.915 14.0292L155.954 14.3043ZM155.267 14.0282L151.251 0.0442214L149.328 0.596278L153.344 14.5803L155.267 14.0282ZM150.29 1.32025H151.954V-0.67975H150.29V1.32025ZM150.992 0.595261L154.992 14.5793L156.915 14.0292L152.915 0.0452378L150.992 0.595261ZM155.954 13.3043H154.306V15.3043H155.954V13.3043ZM168.921 14.3043L167.959 14.5803L168.167 15.3043H168.921V14.3043ZM164.905 0.32025V-0.67975H163.577L163.943 0.596278L164.905 0.32025ZM166.569 0.32025L167.53 0.0452378L167.323 -0.67975H166.569V0.32025ZM170.569 14.3043V15.3043H171.895L171.53 14.0292L170.569 14.3043ZM169.882 14.0282L165.866 0.0442214L163.943 0.596278L167.959 14.5803L169.882 14.0282ZM164.905 1.32025H166.569V-0.67975H164.905V1.32025ZM165.607 0.595261L169.607 14.5793L171.53 14.0292L167.53 0.0452378L165.607 0.595261ZM170.569 13.3043H168.921V15.3043H170.569V13.3043ZM183.536 14.3043L182.574 14.5803L182.782 15.3043H183.536V14.3043ZM179.52 0.32025V-0.67975H178.192L178.558 0.596278L179.52 0.32025ZM181.184 0.32025L182.145 0.0452378L181.938 -0.67975H181.184V0.32025ZM185.184 14.3043V15.3043H186.51L186.145 14.0292L185.184 14.3043ZM184.497 14.0282L180.481 0.0442214L178.558 0.596278L182.574 14.5803L184.497 14.0282ZM179.52 1.32025H181.184V-0.67975H179.52V1.32025ZM180.222 0.595261L184.222 14.5793L186.145 14.0292L182.145 0.0452378L180.222 0.595261ZM185.184 13.3043H183.536V15.3043H185.184V13.3043ZM214.547 14.3043L213.586 14.5803L213.794 15.3043H214.547V14.3043ZM210.531 0.32025V-0.67975H209.203L209.57 0.596278L210.531 0.32025ZM212.195 0.32025L213.156 0.0452378L212.949 -0.67975H212.195V0.32025ZM216.195 14.3043V15.3043H217.521L217.156 14.0292L216.195 14.3043ZM215.508 14.0282L211.492 0.0442214L209.57 0.596278L213.586 14.5803L215.508 14.0282ZM210.531 1.32025H212.195V-0.67975H210.531V1.32025ZM211.233 0.595261L215.233 14.5793L217.156 14.0292L213.156 0.0452378L211.233 0.595261ZM216.195 13.3043H214.547V15.3043H216.195V13.3043ZM229.162 14.3043L228.201 14.5803L228.409 15.3043H229.162V14.3043ZM225.146 0.32025V-0.67975H223.818L224.185 0.596278L225.146 0.32025ZM226.81 0.32025L227.771 0.0452378L227.564 -0.67975H226.81V0.32025ZM230.81 14.3043V15.3043H232.136L231.771 14.0292L230.81 14.3043ZM230.123 14.0282L226.107 0.0442214L224.185 0.596278L228.201 14.5803L230.123 14.0282ZM225.146 1.32025H226.81V-0.67975H225.146V1.32025ZM225.848 0.595261L229.848 14.5793L231.771 14.0292L227.771 0.0452378L225.848 0.595261ZM230.81 13.3043H229.162V15.3043H230.81V13.3043ZM243.777 14.3043L242.816 14.5803L243.024 15.3043H243.777V14.3043ZM239.761 0.32025V-0.67975H238.433L238.8 0.596278L239.761 0.32025ZM241.425 0.32025L242.386 0.0452378L242.179 -0.67975H241.425V0.32025ZM245.425 14.3043V15.3043H246.751L246.386 14.0292L245.425 14.3043ZM244.738 14.0282L240.722 0.0442214L238.8 0.596278L242.816 14.5803L244.738 14.0282ZM239.761 1.32025H241.425V-0.67975H239.761V1.32025ZM240.463 0.595261L244.463 14.5793L246.386 14.0292L242.386 0.0452378L240.463 0.595261ZM245.425 13.3043H243.777V15.3043H245.425V13.3043ZM274.788 14.3043L273.827 14.5803L274.035 15.3043H274.788V14.3043ZM270.772 0.32025V-0.67975H269.445L269.811 0.596278L270.772 0.32025ZM272.436 0.32025L273.398 0.0452378L273.19 -0.67975H272.436V0.32025ZM276.436 14.3043V15.3043H277.762L277.398 14.0292L276.436 14.3043ZM275.749 14.0282L271.733 0.0442214L269.811 0.596278L273.827 14.5803L275.749 14.0282ZM270.772 1.32025H272.436V-0.67975H270.772V1.32025ZM271.475 0.595261L275.475 14.5793L277.398 14.0292L273.398 0.0452378L271.475 0.595261ZM276.436 13.3043H274.788V15.3043H276.436V13.3043ZM289.403 14.3043L288.442 14.5803L288.65 15.3043H289.403V14.3043ZM285.387 0.32025V-0.67975H284.06L284.426 0.596278L285.387 0.32025ZM287.051 0.32025L288.013 0.0452378L287.805 -0.67975H287.051V0.32025ZM291.051 14.3043V15.3043H292.377L292.013 14.0292L291.051 14.3043ZM290.364 14.0282L286.348 0.0442214L284.426 0.596278L288.442 14.5803L290.364 14.0282ZM285.387 1.32025H287.051V-0.67975H285.387V1.32025ZM286.09 0.595261L290.09 14.5793L292.013 14.0292L288.013 0.0452378L286.09 0.595261ZM291.051 13.3043H289.403V15.3043H291.051V13.3043ZM304.018 14.3043L303.057 14.5803L303.265 15.3043H304.018V14.3043ZM300.002 0.32025V-0.67975H298.674L299.041 0.596278L300.002 0.32025ZM301.666 0.32025L302.628 0.0452378L302.42 -0.67975H301.666V0.32025ZM305.666 14.3043V15.3043H306.992L306.628 14.0292L305.666 14.3043ZM304.979 14.0282L300.963 0.0442214L299.041 0.596278L303.057 14.5803L304.979 14.0282ZM300.002 1.32025H301.666V-0.67975H300.002V1.32025ZM300.705 0.595261L304.705 14.5793L306.628 14.0292L302.628 0.0452378L300.705 0.595261ZM305.666 13.3043H304.018V15.3043H305.666V13.3043ZM318.633 14.3043L317.672 14.5803L317.88 15.3043H318.633V14.3043ZM314.617 0.32025V-0.67975H313.29L313.656 0.596278L314.617 0.32025ZM316.281 0.32025L317.243 0.0452378L317.035 -0.67975H316.281V0.32025ZM320.281 14.3043V15.3043H321.607L321.243 14.0292L320.281 14.3043ZM319.594 14.0282L315.578 0.0442214L313.656 0.596278L317.672 14.5803L319.594 14.0282ZM314.617 1.32025H316.281V-0.67975H314.617V1.32025ZM315.32 0.595261L319.32 14.5793L321.243 14.0292L317.243 0.0452378L315.32 0.595261ZM320.281 13.3043H318.633V15.3043H320.281V13.3043Z" fill="#404144" mask="url(#path-1-inside-1_4201_29487)"/>
<defs>
<radialGradient id="paint0_radial_4201_29487" cx="0" cy="0" r="1" gradientUnits="userSpaceOnUse" gradientTransform="translate(327.033 1.45625) rotate(177.553) scale(305.62 33.0245)">
<stop stop-color="#18F6DB"/>
<stop offset="1" stop-color="#0364FF"/>
</radialGradient>
</defs>
</svg>
