<svg width="312" height="216" viewBox="0 0 312 216" fill="none" xmlns="http://www.w3.org/2000/svg">
<g clip-path="url(#clip0_4300_18037)">
<path d="M61.6088 46.5169C61.643 46.6398 61.6195 46.7778 61.5279 46.8943C61.2255 47.2774 59.8339 48.0667 57.256 49.314C57.4835 51.6013 57.5217 52.8968 57.3913 53.2741C57.3331 53.4213 57.2116 53.5193 57.0662 53.5313C56.8216 53.5431 56.5274 53.5548 54.7859 50.0582C49.2811 50.3635 49.0841 49.9672 48.958 49.7367C48.9511 49.7121 48.9327 49.6906 48.9225 49.6538C48.8883 49.5309 48.9118 49.3928 49.0034 49.2764C49.322 48.8626 50.9424 47.9602 53.8218 46.5937C53.5189 42.7438 53.779 42.6093 53.9962 42.4992C54.1245 42.4258 54.2802 42.4506 54.4101 42.5614C54.7184 42.8229 55.3605 43.9722 56.3569 46.083C61.2604 45.844 61.4438 46.1912 61.5618 46.437C61.5836 46.4708 61.602 46.4923 61.6088 46.5169Z" fill="#9D4492"/>
<path d="M258.109 22.4221C258.143 22.545 258.12 22.6831 258.028 22.7996C257.726 23.1827 256.334 23.9721 253.756 25.2196C253.984 27.507 254.022 28.8025 253.891 29.1799C253.833 29.3271 253.712 29.4251 253.566 29.4371C253.322 29.4489 253.027 29.4606 251.286 25.9639C245.781 26.2697 245.584 25.8733 245.458 25.6428C245.452 25.6182 245.433 25.5967 245.423 25.5599C245.389 25.437 245.412 25.2989 245.504 25.1824C245.822 24.7686 247.443 23.8661 250.322 22.4994C250.02 18.6494 250.28 18.5148 250.497 18.4047C250.625 18.3313 250.781 18.3561 250.911 18.4669C251.219 18.7284 251.861 19.8777 252.857 21.9885C257.761 21.7492 257.944 22.0964 258.062 22.3422C258.084 22.3761 258.102 22.3976 258.109 22.4221Z" fill="#9D4492"/>
<path d="M42.623 132.062L38.8956 129.763L43.9404 120.252L47.6678 122.552L42.623 132.062Z" fill="#9BEC7D"/>
<path d="M101.068 30.0091L101.902 26.4084L110.526 28.9873L109.693 32.588L101.068 30.0091Z" fill="#FFBF19"/>
<path d="M68.6031 85.7639L71.3678 82.5163L79.383 90.1207L76.6183 93.3684L68.6031 85.7639Z" fill="#9D4492"/>
<path d="M19.3945 82.5117L22.4369 84.6082L17.8111 92.3338L14.7687 90.2373L19.3945 82.5117Z" fill="#FFBF19"/>
<path d="M143.473 24.9461L144.69 20.7401L154.81 24.3949L153.593 28.6009L143.473 24.9461Z" fill="#9D4492"/>
<path d="M39.4106 27.3695L37.0346 30.9467L28.2796 24.3238L30.6555 20.7466L39.4106 27.3695Z" fill="#9BEC7D"/>
<path d="M67.5806 191.549C67.6046 191.635 67.5904 191.718 67.5347 191.786C67.3433 192.034 66.751 192.698 65.0866 193.493C65.2256 194.973 64.9413 195.662 64.8607 195.907C64.8269 196.008 64.7447 196.07 64.6454 196.069C64.4849 196.072 64.0596 196.323 62.9224 194.064C59.3679 194.264 59.4766 193.767 59.3975 193.616C59.3941 193.604 59.3873 193.58 59.3838 193.567C59.3599 193.481 59.3741 193.398 59.4297 193.331C59.6408 193.064 60.3484 192.393 62.2105 191.506C62.0163 189.025 62.5108 189.023 62.6542 188.959C62.7398 188.91 62.8425 188.922 62.9243 188.993C63.1211 189.165 63.5615 189.606 64.2158 190.977C67.3868 190.826 67.4729 191.34 67.5554 191.503C67.5588 191.515 67.5772 191.537 67.5806 191.549Z" fill="#9BEC7D"/>
<path d="M-0.143818 154.377L1.59086 151.48L8.64183 156.339L6.90715 159.236L-0.143818 154.377Z" fill="#FF623A"/>
<path d="M263.323 88.5743C263.289 88.6992 263.313 88.8396 263.406 88.958C263.713 89.3475 265.128 90.1499 267.749 91.418C267.517 93.7433 267.478 95.0603 267.611 95.4439C267.67 95.5936 267.794 95.6932 267.942 95.7054C268.19 95.7174 268.489 95.7293 270.26 92.1745C275.856 92.485 276.056 92.0821 276.185 91.8478C276.192 91.8228 276.21 91.8009 276.221 91.7634C276.255 91.6385 276.231 91.4982 276.138 91.3798C275.814 90.9591 274.167 90.0417 271.24 88.6525C271.548 84.7386 271.283 84.6018 271.063 84.4899C270.932 84.4152 270.774 84.4405 270.642 84.5531C270.328 84.819 269.676 85.9874 268.663 88.1333C263.678 87.8902 263.491 88.2432 263.371 88.4931C263.349 88.5275 263.33 88.5494 263.323 88.5743Z" fill="#9D4492"/>
<path d="M256.143 162.187L259.932 159.85L254.803 150.181L251.014 152.519L256.143 162.187Z" fill="#9BEC7D"/>
<path d="M307.453 131.961L304.364 134.1L309.052 141.967L312.141 139.828L307.453 131.961Z" fill="#FFBF19"/>
<path d="M193.926 54.7825L193.079 51.1219L184.311 53.7439L185.158 57.4046L193.926 54.7825Z" fill="#FFBF19"/>
<path d="M233.899 35.924L231.088 32.6224L222.94 40.3534L225.75 43.6551L233.899 35.924Z" fill="#9D4492"/>
<path d="M302.119 34.2586L300.882 29.9826L290.594 33.6983L291.83 37.9743L302.119 34.2586Z" fill="#9D4492"/>
<path d="M193.148 27.4594L195.563 31.0962L204.464 24.3627L202.048 20.7259L193.148 27.4594Z" fill="#9BEC7D"/>
<path d="M287.133 186.404C287.109 186.491 287.123 186.575 287.18 186.644C287.375 186.896 287.977 187.571 289.669 188.38C289.528 189.885 289.817 190.585 289.899 190.835C289.933 190.938 290.017 191 290.118 191C290.281 191.002 290.713 191.257 291.869 188.961C295.483 189.164 295.373 188.659 295.453 188.505C295.457 188.493 295.464 188.468 295.467 188.455C295.491 188.368 295.477 188.284 295.42 188.215C295.206 187.944 294.486 187.261 292.593 186.359C292.791 183.837 292.288 183.835 292.142 183.769C292.055 183.72 291.951 183.732 291.867 183.804C291.667 183.979 291.22 184.428 290.554 185.821C287.33 185.668 287.243 186.191 287.159 186.357C287.156 186.369 287.137 186.391 287.133 186.404Z" fill="#9BEC7D"/>
<path d="M244.103 127.1L242.339 124.154L235.171 129.094L236.935 132.039L244.103 127.1Z" fill="#FF623A"/>
<path d="M242.928 74.7031L239.301 76.8007L244.817 84.5322L248.443 82.4346L242.928 74.7031Z" fill="#FFBF19"/>
<circle opacity="0.1" cx="156.141" cy="134.656" r="65.1406" fill="#0E9F6E"/>
<circle opacity="0.2" cx="156.141" cy="134.655" r="55.8348" fill="#0E9F6E"/>
<circle opacity="0.3" cx="156.141" cy="134.657" r="43.0393" fill="#0E9F6E"/>
<circle cx="156.14" cy="135.655" r="33.7335" fill="#0E9F6E"/>
<path d="M143.928 136.403L150.907 143.382L168.355 125.934" stroke="white" stroke-width="4.6529" stroke-linecap="round" stroke-linejoin="round"/>
</g>
<defs>
<clipPath id="clip0_4300_18037">
<rect width="312" height="215" fill="white" transform="translate(0 0.796875)"/>
</clipPath>
</defs>
</svg>
