<svg width="57" height="56" viewBox="0 0 57 56" fill="none" xmlns="http://www.w3.org/2000/svg">
<rect x="6.10156" y="5.59961" width="44.8" height="44.8" rx="22.4" fill="#374151"/>
<path fill-rule="evenodd" clip-rule="evenodd" d="M27.5282 36.5771C27.4817 36.7507 27.6125 36.9211 27.7922 36.9211H29.3661C29.5458 36.9211 29.6766 36.7507 29.6301 36.5771L28.8431 33.6402C28.7708 33.3701 28.3875 33.3701 28.3152 33.6402L27.5282 36.5771Z" fill="white"/>
<path fill-rule="evenodd" clip-rule="evenodd" d="M25.9611 38.4569C25.8406 38.9067 25.4329 39.2194 24.9673 39.2194H22.837C22.1605 39.2194 21.6681 38.5778 21.8432 37.9243L26.2134 21.6145C26.3452 21.1225 26.791 20.7804 27.3004 20.7804H29.8357C30.345 20.7804 30.7908 21.1225 30.9226 21.6145L35.2929 37.9243C35.4679 38.5778 34.9756 39.2194 34.2991 39.2194H32.1687C31.7031 39.2194 31.2955 38.9067 31.1749 38.4569L29.0494 30.5242C28.9174 30.0317 28.2186 30.0317 28.0866 30.5242L25.9611 38.4569Z" fill="white"/>
<path fill-rule="evenodd" clip-rule="evenodd" d="M36.6767 35.3834C36.5405 35.8918 35.8191 35.8918 35.6829 35.3834L34.0963 29.4622C34.0656 29.3478 34.0656 29.2272 34.0963 29.1127L36.1183 21.5667C36.2426 21.1028 36.6629 20.7803 37.1431 20.7803H39.2068C39.9045 20.7803 40.4123 21.442 40.2317 22.1159L36.6767 35.3834ZM23.064 29.4524C23.0947 29.3379 23.0947 29.2173 23.064 29.1029L21.0447 21.5667C20.9204 21.1028 20.5001 20.7803 20.0199 20.7803H17.9561C17.2585 20.7803 16.7507 21.442 16.9313 22.1159L20.4836 35.3736C20.6199 35.8819 21.3412 35.8819 21.4774 35.3736L23.064 29.4524Z" fill="white"/>
</svg>
