<svg width="51" height="41" viewBox="0 0 51 41" fill="none" xmlns="http://www.w3.org/2000/svg">
<g id="Union">
<path d="M40.59 32.2062C40.8608 33.2169 42.2949 33.2169 42.5657 32.2062L50.3615 3.10856C50.7205 1.76879 49.7111 0.453125 48.3242 0.453125H43.5176C42.5629 0.453125 41.7273 1.0944 41.4802 2.01662L37.084 18.4252C37.023 18.6528 37.023 18.8925 37.084 19.1201L40.59 32.2062Z" fill="white"/>
<path d="M13.3449 18.404C13.4059 18.6316 13.4059 18.8712 13.3449 19.0988L9.83884 32.1849C9.56804 33.1956 8.134 33.1956 7.8632 32.1849L0.0730318 3.10856C-0.285921 1.76879 0.723518 0.453125 2.1104 0.453125H6.91699C7.87165 0.453125 8.70728 1.0944 8.95436 2.01662L13.3449 18.404Z" fill="white"/>
<path d="M19.9166 38.6022C19.678 39.4955 18.871 40.1167 17.949 40.1167H13.0302C11.6908 40.1167 10.716 38.8423 11.0626 37.5445L20.528 2.10957C20.789 1.13252 21.6717 0.453125 22.6801 0.453125H28.401C29.4094 0.453125 30.2921 1.13252 30.5531 2.10957L40.0184 37.5445C40.3651 38.8423 39.3902 40.1167 38.0509 40.1167H33.1321C32.2101 40.1167 31.4031 39.4955 31.1645 38.6022L26.4936 21.116C26.2323 20.1379 24.8488 20.1379 24.5875 21.116L19.9166 38.6022Z" fill="white"/>
<path d="M23.8131 34.9149C23.4611 34.9149 23.2049 34.5973 23.296 34.2738L25.0235 28.14C25.1653 27.6367 25.9159 27.6367 26.0576 28.14L27.7851 34.2738C27.8762 34.5973 27.62 34.9149 27.2681 34.9149H23.8131Z" fill="white"/>
</g>
</svg>
