<svg width="31" height="30" viewBox="0 0 31 30" fill="none" xmlns="http://www.w3.org/2000/svg">
<g id="Group 1">
<path id="Vector" d="M4.64247 0.882812H24.7744V29.7656H21.8193V16.5354H21.7903C21.4637 12.8789 18.4177 10.0135 14.7085 10.0135C10.9992 10.0135 7.95322 12.8789 7.62658 16.5354H7.59762V29.7656H4.64247V0.882812Z" fill="white"/>
<path id="Vector_2" d="M-0.713791 4.98047L0.486744 9.07997H1.50256V25.6643C0.992533 25.6643 0.579084 26.0814 0.579084 26.596V27.7141H0.394405C-0.115622 27.7141 -0.529113 28.1312 -0.529113 28.6458V29.7638H9.81393V28.6458C9.81393 28.1312 9.40048 27.7141 8.89045 27.7141H8.70577V26.596C8.70577 26.0814 8.29228 25.6643 7.78226 25.6643H6.6741V4.98047H-0.713791Z" fill="white"/>
<path id="Vector_3" d="M22.0039 25.6643C21.4938 25.6643 21.0804 26.0814 21.0804 26.596V27.7141H20.8957C20.3857 27.7141 19.9722 28.1312 19.9722 28.6458V29.7638H30.3153V28.6458C30.3153 28.1312 29.9018 27.7141 29.3918 27.7141H29.2071V26.596C29.2071 26.0814 28.7936 25.6643 28.2836 25.6643V9.07997H29.2994L30.5 4.98047H23.1121V25.6643H22.0039Z" fill="white"/>
</g>
</svg>
