<svg width="46" height="46" viewBox="0 0 46 46" fill="none" xmlns="http://www.w3.org/2000/svg">
<path fill-rule="evenodd" clip-rule="evenodd" d="M15.375 6.3176C18.4493 5.074 21.7819 4.60446 25.0801 4.95021C28.3782 5.29597 31.541 6.44644 34.2905 8.30055C37.04 10.1547 39.2921 12.6557 40.8489 15.5838C42.4056 18.5119 43.2194 21.7776 43.2188 25.0938C43.2188 25.6906 42.9817 26.2629 42.5598 26.6848C42.1378 27.1068 41.5655 27.3439 40.9688 27.3439C40.372 27.3439 39.7997 27.1068 39.3778 26.6848C38.9558 26.2629 38.7188 25.6906 38.7188 25.0938C38.7198 22.5143 38.0872 19.9739 36.8766 17.696C35.6661 15.4182 33.9145 13.4725 31.7759 12.0301C29.6373 10.5876 27.1772 9.69249 24.6117 9.42341C22.0462 9.15433 19.4539 9.5195 17.0625 10.4868C16.7868 10.6086 16.4895 10.6737 16.1881 10.6783C15.8868 10.6829 15.5876 10.6269 15.3083 10.5137C15.029 10.4004 14.7753 10.2322 14.5622 10.0191C14.3492 9.80588 14.1812 9.55208 14.0681 9.27271C13.955 8.99335 13.8992 8.69411 13.904 8.39277C13.9088 8.09143 13.9741 7.79412 14.096 7.51849C14.2179 7.24286 14.3939 6.99453 14.6136 6.78824C14.8333 6.58195 15.0923 6.4219 15.375 6.3176V6.3176ZM10.9583 11.5016C11.4053 11.8964 11.6773 12.4527 11.7145 13.048C11.7516 13.6433 11.5508 14.229 11.1563 14.6763C8.61346 17.5502 7.21256 21.2566 7.21877 25.0938C7.21877 25.6906 6.98171 26.2629 6.55976 26.6848C6.1378 27.1068 5.5655 27.3439 4.96877 27.3439C4.37203 27.3439 3.79973 27.1068 3.37778 26.6848C2.95582 26.2629 2.71877 25.6906 2.71877 25.0938C2.7125 20.1604 4.51343 15.3955 7.78127 11.6996C7.97681 11.4779 8.21412 11.2969 8.47964 11.167C8.74517 11.037 9.03369 10.9607 9.32874 10.9423C9.62378 10.9239 9.91955 10.9638 10.1992 11.0598C10.4788 11.1558 10.7367 11.3059 10.9583 11.5016V11.5016Z" fill="#FEFEFE"/>
<path fill-rule="evenodd" clip-rule="evenodd" d="M11.7187 25.0938C11.7187 22.1101 12.904 19.2486 15.0138 17.1388C17.1236 15.029 19.9851 13.8438 22.9687 13.8438C25.9524 13.8438 28.8139 15.029 30.9237 17.1388C33.0335 19.2486 34.2187 22.1101 34.2187 25.0938C34.2187 25.6905 33.9817 26.2628 33.5597 26.6847C33.1378 27.1067 32.5655 27.3438 31.9687 27.3438C31.372 27.3438 30.7997 27.1067 30.3778 26.6847C29.9558 26.2628 29.7187 25.6905 29.7187 25.0938C29.7187 23.3035 29.0076 21.5866 27.7417 20.3208C26.4758 19.0549 24.759 18.3438 22.9687 18.3438C21.1785 18.3438 19.4616 19.0549 18.1958 20.3208C16.9299 21.5866 16.2187 23.3035 16.2187 25.0938C16.2187 28.867 15.4425 32.4648 14.0407 35.734C13.8053 36.2824 13.3617 36.7148 12.8075 36.9361C12.2532 37.1575 11.6338 37.1495 11.0854 36.9141C10.537 36.6787 10.1045 36.2351 9.88323 35.6808C9.66191 35.1266 9.66983 34.5072 9.90524 33.9587C11.106 31.1577 11.7231 28.1413 11.7187 25.0938V25.0938ZM31.791 29.6208C32.083 29.667 32.363 29.7704 32.615 29.9249C32.867 30.0795 33.0861 30.2822 33.2597 30.5214C33.4334 30.7607 33.5582 31.0318 33.627 31.3193C33.6958 31.6068 33.7073 31.9051 33.6607 32.197C33.3673 34.0479 32.9578 35.8785 32.4345 37.678C32.3576 37.9679 32.2235 38.2396 32.0402 38.4769C31.8568 38.7143 31.6278 38.9126 31.3666 39.0602C31.1055 39.2077 30.8175 39.3016 30.5196 39.3363C30.2216 39.3709 29.9198 39.3456 29.6317 39.2619C29.3437 39.1782 29.0753 39.0378 28.8423 38.8488C28.6094 38.6599 28.4165 38.4263 28.2752 38.1617C28.1338 37.8972 28.0468 37.607 28.0192 37.3083C27.9916 37.0097 28.024 36.7085 28.1145 36.4225C28.5802 34.8182 28.9492 33.1713 29.217 31.4905C29.311 30.9017 29.6349 30.3743 30.1175 30.0241C30.6002 29.6739 31.2021 29.5297 31.791 29.623V29.6208Z" fill="white"/>
<path fill-rule="evenodd" clip-rule="evenodd" d="M22.9688 22.8438C23.5655 22.8438 24.1378 23.0808 24.5597 23.5028C24.9817 23.9247 25.2188 24.497 25.2188 25.0938C25.2188 30.1248 24.1838 34.9218 22.3163 39.2778C22.1997 39.5493 22.0308 39.7952 21.8192 40.0015C21.6076 40.2077 21.3574 40.3703 21.083 40.4799C20.8085 40.5895 20.5152 40.6439 20.2197 40.6402C19.9243 40.6364 19.6324 40.5744 19.3609 40.4579C19.0893 40.3413 18.8434 40.1724 18.6372 39.9608C18.4309 39.7492 18.2683 39.499 18.1587 39.2246C18.0492 38.9502 17.9947 38.6568 17.9985 38.3614C18.0023 38.0659 18.0642 37.774 18.1808 37.5025C19.8611 33.5816 20.7246 29.3595 20.7188 25.0938C20.7188 24.497 20.9558 23.9247 21.3778 23.5028C21.7997 23.0808 22.372 22.8438 22.9688 22.8438V22.8438Z" fill="white"/>
</svg>
