<svg width="21" height="21" viewBox="0 0 21 21" fill="none" xmlns="http://www.w3.org/2000/svg">
<g id="Vector">
<path d="M12.3304 8.97441C11.549 8.22453 10.4894 7.80326 9.38453 7.80326C8.27968 7.80326 7.22007 8.22453 6.4387 8.97441L2.27203 12.9744C1.87407 13.3434 1.55665 13.7848 1.33828 14.2728C1.11991 14.7608 1.00496 15.2857 1.00016 15.8168C0.99535 16.3479 1.10077 16.8746 1.31028 17.3662C1.51978 17.8578 1.82917 18.3044 2.22039 18.68C2.61161 19.0556 3.07682 19.3526 3.58889 19.5537C4.10096 19.7548 4.64963 19.856 5.20287 19.8514C5.75612 19.8468 6.30287 19.7365 6.81122 19.5268C7.31957 19.3172 7.77934 19.0125 8.1637 18.6304L9.31162 17.5294M8.52203 12.6304C9.3034 13.3803 10.363 13.8016 11.4679 13.8016C12.5727 13.8016 13.6323 13.3803 14.4137 12.6304L18.5804 8.63041C19.3394 7.876 19.7593 6.86559 19.7498 5.81681C19.7403 4.76802 19.3021 3.76477 18.5296 3.02314C17.7571 2.2815 16.712 1.86083 15.6195 1.85171C14.5271 1.8426 13.4745 2.24578 12.6887 2.97441L11.5429 4.07441" stroke="#111928" stroke-width="2" stroke-linecap="round" stroke-linejoin="round"/>
<path d="M12.3304 8.97441C11.549 8.22453 10.4894 7.80326 9.38453 7.80326C8.27968 7.80326 7.22007 8.22453 6.4387 8.97441L2.27203 12.9744C1.87407 13.3434 1.55665 13.7848 1.33828 14.2728C1.11991 14.7608 1.00496 15.2857 1.00016 15.8168C0.99535 16.3479 1.10077 16.8746 1.31028 17.3662C1.51978 17.8578 1.82917 18.3044 2.22039 18.68C2.61161 19.0556 3.07682 19.3526 3.58889 19.5537C4.10096 19.7548 4.64963 19.856 5.20287 19.8514C5.75612 19.8468 6.30287 19.7365 6.81122 19.5268C7.31957 19.3172 7.77934 19.0125 8.1637 18.6304L9.31162 17.5294M8.52203 12.6304C9.3034 13.3803 10.363 13.8016 11.4679 13.8016C12.5727 13.8016 13.6323 13.3803 14.4137 12.6304L18.5804 8.63041C19.3394 7.876 19.7593 6.86559 19.7498 5.81681C19.7403 4.76802 19.3021 3.76477 18.5296 3.02314C17.7571 2.2815 16.712 1.86083 15.6195 1.85171C14.5271 1.8426 13.4745 2.24578 12.6887 2.97441L11.5429 4.07441" stroke="url(#paint0_linear_4331_2881)" stroke-width="2" stroke-linecap="round" stroke-linejoin="round"/>
</g>
<defs>
<linearGradient id="paint0_linear_4331_2881" x1="1.45725" y1="11.685" x2="24.5713" y2="24.1126" gradientUnits="userSpaceOnUse">
<stop stop-color="#66D4F7"/>
<stop offset="0.39525" stop-color="#4D92FF"/>
<stop offset="0.605" stop-color="#BB65FF"/>
</linearGradient>
</defs>
</svg>
