<svg width="37" height="37" viewBox="0 0 37 37" fill="none" xmlns="http://www.w3.org/2000/svg">
<path id="Vector" d="M24.7537 20.1276L24.7538 20.1276L31.5008 13.3806C31.9769 12.92 32.3567 12.3694 32.6181 11.7607C32.8802 11.1507 33.0181 10.4946 33.0239 9.83068C33.0296 9.16678 32.9031 8.50839 32.6517 7.89391C32.4003 7.27942 32.029 6.72116 31.5596 6.2517C31.0901 5.78224 30.5319 5.41097 29.9174 5.15957C29.3029 4.90816 28.6445 4.78165 27.9806 4.78742C27.3167 4.79319 26.6606 4.93112 26.0506 5.19317C25.4419 5.45463 24.8913 5.83442 24.4307 6.31047L21.0587 9.68248L21.0586 9.68242L21.0526 9.68868C20.8912 9.85582 20.6981 9.98914 20.4846 10.0809C20.2711 10.1726 20.0414 10.2208 19.8091 10.2229C19.5767 10.2249 19.3463 10.1806 19.1312 10.0926C18.9161 10.0046 18.7207 9.87468 18.5564 9.71037C18.3921 9.54606 18.2622 9.35067 18.1742 9.13559C18.0862 8.92053 18.0419 8.69009 18.0439 8.45772C18.0459 8.22536 18.0942 7.99572 18.1859 7.78222C18.2776 7.56871 18.411 7.37561 18.5781 7.21417L18.5782 7.21423L18.5843 7.20808L21.9562 3.83617C23.559 2.28972 25.7048 1.43409 27.932 1.45345C30.1607 1.47281 32.2926 2.36675 33.8686 3.94272C35.4445 5.51869 36.3385 7.65059 36.3578 9.87926C36.3772 12.1065 35.5215 14.2523 33.9751 15.8551L27.2283 22.6019C27.2282 22.6019 27.2282 22.602 27.2282 22.602C25.6342 24.1954 23.4726 25.0906 21.2188 25.0906C18.9664 25.0906 16.8061 24.1966 15.2125 22.6051C14.8955 22.2754 14.7202 21.8347 14.7242 21.3772C14.7282 20.9184 14.9122 20.4795 15.2367 20.155C15.5612 19.8305 16.0001 19.6465 16.4589 19.6425C16.9165 19.6385 17.3573 19.8139 17.687 20.1309C18.6243 21.0662 19.8945 21.5916 21.2188 21.5916C22.5446 21.5916 23.8161 21.065 24.7537 20.1276ZM13.1837 17.5574L13.1837 17.5575L6.43666 24.3045C5.96062 24.7651 5.58084 25.3157 5.31939 25.9244C5.05734 26.5344 4.91941 27.1905 4.91364 27.8544C4.90787 28.5183 5.03438 29.1767 5.28578 29.7912C5.53719 30.4056 5.90845 30.9639 6.37792 31.4334C6.84738 31.9028 7.40564 32.2741 8.02012 32.5255C8.6346 32.7769 9.293 32.9034 9.9569 32.8976C10.6208 32.8919 11.2769 32.7539 11.8869 32.4919C12.4955 32.2304 13.0461 31.8507 13.5067 31.3747L16.8788 28.0026L16.8789 28.0026L16.8849 27.9964C17.0463 27.8292 17.2394 27.6959 17.4529 27.6042C17.6664 27.5125 17.8961 27.4642 18.1284 27.4622C18.3608 27.4602 18.5912 27.5045 18.8063 27.5924C19.0214 27.6804 19.2168 27.8104 19.3811 27.9747C19.5454 28.139 19.6753 28.3344 19.7633 28.5495C19.8513 28.7645 19.8956 28.995 19.8936 29.2273C19.8916 29.4597 19.8433 29.6893 19.7516 29.9028C19.6599 30.1164 19.5265 30.3095 19.3594 30.4709L19.3593 30.4708L19.3532 30.477L15.9782 33.852L15.9781 33.8519L15.9721 33.8582C15.188 34.67 14.2501 35.3176 13.213 35.763C12.176 36.2085 11.0606 36.443 9.93202 36.4528C8.80339 36.4626 7.68411 36.2476 6.6395 35.8202L6.45016 36.2829L6.63949 35.8202C5.59488 35.3928 4.64584 34.7616 3.84775 33.9635C3.04966 33.1654 2.41851 32.2164 1.99112 31.1718C1.56373 30.1272 1.34867 29.0079 1.35848 27.8793C1.36828 26.7506 1.60277 25.6353 2.04824 24.5982C2.49372 23.5612 3.14127 22.6233 3.9531 21.8392L3.95316 21.8392L3.9593 21.8331L10.7092 15.0831C10.7093 15.0831 10.7093 15.0831 10.7093 15.0831C12.3033 13.4896 14.4649 12.5945 16.7188 12.5945C18.9726 12.5945 21.1343 13.4896 22.7282 15.0831L22.7282 15.0832L22.7344 15.0892C22.9015 15.2506 23.0349 15.4437 23.1266 15.6572C23.2183 15.8707 23.2666 16.1004 23.2686 16.3327C23.2706 16.5651 23.2263 16.7955 23.1383 17.0106C23.0503 17.2257 22.9204 17.4211 22.7561 17.5854C22.5918 17.7497 22.3964 17.8796 22.1813 17.9676C21.9662 18.0556 21.7358 18.0999 21.5034 18.0979C21.2711 18.0958 21.0414 18.0476 20.8279 17.9559C20.6144 17.8641 20.4213 17.7308 20.2599 17.5637L20.2599 17.5636L20.2537 17.5574C19.3161 16.6201 18.0446 16.0935 16.7188 16.0935C15.3929 16.0935 14.1214 16.6201 13.1837 17.5574Z" fill="#FEFEFE" stroke="white"/>
</svg>
