<svg width="32" height="32" viewBox="0 0 32 32" fill="none" xmlns="http://www.w3.org/2000/svg">
<g id="Group 427320924">
<circle id="Ellipse 1447" cx="16" cy="16" r="16" fill="#7950DD"/>
<path id="Vector" d="M21.0361 12.676C20.8444 12.5739 20.6304 12.5204 20.4132 12.5204C20.1959 12.5204 19.982 12.5739 19.7902 12.676L16.9815 14.337L15.0195 15.4275L12.2109 17.0894C12.0191 17.1915 11.8052 17.245 11.5879 17.245C11.3706 17.245 11.1567 17.1915 10.965 17.0894L8.73277 15.7903C8.54904 15.6844 8.39538 15.5333 8.28629 15.3515C8.17721 15.1696 8.11631 14.9629 8.10935 14.7509V12.1579C8.10539 11.9437 8.16172 11.7327 8.2719 11.5489C8.38209 11.3651 8.5417 11.216 8.73254 11.1185L10.965 9.87287C11.1566 9.77025 11.3705 9.71656 11.5879 9.71656C11.8053 9.71656 12.0192 9.77025 12.2109 9.87287L14.443 11.1188C14.6267 11.2247 14.7803 11.3758 14.8894 11.5577C14.9984 11.7396 15.0593 11.9462 15.0662 12.1582V13.818L16.9815 12.6763V11.0675C16.9867 10.8543 16.9321 10.6439 16.8238 10.4602C16.7155 10.2765 16.5579 10.1268 16.3689 10.0281L12.2619 7.64069C12.0703 7.53807 11.8563 7.48438 11.639 7.48438C11.4216 7.48437 11.2076 7.53807 11.016 7.64069L6.86345 10.0281C6.65614 10.1086 6.47942 10.2523 6.35833 10.4389C6.23724 10.6254 6.17792 10.8454 6.18876 11.0675V15.8945C6.18573 16.1079 6.24252 16.3178 6.3527 16.5005C6.46289 16.6833 6.62206 16.8315 6.81217 16.9284L10.965 19.3215C11.1567 19.4237 11.3706 19.4772 11.5879 19.4772C11.8052 19.4772 12.0191 19.4237 12.2109 19.3215L15.0195 17.7118L16.9401 16.5701L19.7392 14.9657C19.9309 14.8635 20.1448 14.8101 20.3621 14.8101C20.5794 14.8101 20.7933 14.8635 20.9851 14.9657L23.2172 16.2116C23.4009 16.3176 23.5544 16.4687 23.6633 16.6506C23.7722 16.8325 23.833 17.0391 23.8397 17.251V19.7948C23.8437 20.0088 23.7875 20.2197 23.6774 20.4033C23.5674 20.5869 23.4079 20.7359 23.2172 20.8333L20.9851 22.1302C20.7935 22.2328 20.5795 22.2865 20.3621 22.2865C20.1448 22.2865 19.9308 22.2328 19.7392 22.1302L17.507 20.8843C17.3233 20.7786 17.1697 20.6278 17.0606 20.4461C16.9515 20.2644 16.8906 20.0579 16.8836 19.8461V18.1789L15.0195 19.2684V20.9285C15.0154 21.1427 15.0716 21.3537 15.1817 21.5375C15.2918 21.7213 15.4513 21.8704 15.642 21.9679L19.7948 24.3551C19.9866 24.4577 20.2007 24.5114 20.4182 24.5114C20.6357 24.5114 20.8499 24.4577 21.0416 24.3551L25.1942 21.9674C25.3767 21.8611 25.5291 21.7101 25.6373 21.5286C25.7454 21.3472 25.8056 21.1412 25.8123 20.9301V16.101C25.8163 15.8869 25.7599 15.6759 25.6497 15.4923C25.5395 15.3086 25.3798 15.1597 25.1889 15.0625L21.0361 12.676Z" fill="#F3F4F6"/>
</g>
</svg>
