<svg width="32" height="42" viewBox="0 0 32 42" fill="none" xmlns="http://www.w3.org/2000/svg">
<path id="Vector" fill-rule="evenodd" clip-rule="evenodd" d="M18.8938 0.695777C19.3505 0.839422 19.7496 1.12503 20.0328 1.51108C20.3161 1.89712 20.4688 2.36346 20.4688 2.84228V14.0923H29.4688C29.8803 14.0921 30.2841 14.2048 30.636 14.4181C30.988 14.6315 31.2747 14.9372 31.465 15.3022C31.6552 15.6672 31.7417 16.0773 31.715 16.488C31.6884 16.8987 31.5496 17.2942 31.3138 17.6315L15.5638 40.1315C15.2897 40.5242 14.8974 40.8192 14.444 40.9736C13.9907 41.128 13.4999 41.1337 13.0431 40.9899C12.5863 40.846 12.1873 40.5602 11.9041 40.174C11.621 39.7877 11.4685 39.3212 11.4688 38.8423V27.5923H2.46877C2.05721 27.5925 1.65348 27.4798 1.30151 27.2664C0.949553 27.0531 0.662846 26.7473 0.472596 26.3824C0.282347 26.0174 0.195843 25.6073 0.222498 25.1966C0.249153 24.7859 0.387947 24.3903 0.623775 24.053L16.3738 1.55303C16.6483 1.16105 17.0406 0.866805 17.4938 0.713048C17.947 0.559291 18.4374 0.554029 18.8938 0.698027V0.695777Z" fill="#FEFEFE"/>
</svg>
