<svg width="31" height="31" viewBox="0 0 31 31" fill="none" xmlns="http://www.w3.org/2000/svg">
<g id="X-Light" clip-path="url(#clip0_4742_41791)">
<path id="Vector" d="M4.54524 0.804688C2.1814 0.804688 0.259521 2.72656 0.259521 5.0904V26.519C0.259521 28.8828 2.1814 30.8047 4.54524 30.8047H25.9738C28.3376 30.8047 30.2595 28.8828 30.2595 26.519V5.0904C30.2595 2.72656 28.3376 0.804688 25.9738 0.804688H4.54524ZM24.4403 6.42969L17.4894 14.3717L25.6658 25.1797H19.264L14.2551 18.6239L8.51622 25.1797H5.33541L12.7684 16.6819L4.92693 6.42969H11.4894L16.0229 12.423L21.2595 6.42969H24.4403ZM21.9091 23.2779L10.5318 8.23103H8.63675L20.1412 23.2779H21.9024H21.9091Z" fill="white"/>
</g>
<defs>
<clipPath id="clip0_4742_41791">
<rect width="30" height="30" fill="white" transform="translate(0.5 0.765625)"/>
</clipPath>
</defs>
</svg>
